<svg width="459" height="84" viewBox="0 0 459 84" fill="none" xmlns="http://www.w3.org/2000/svg">
<rect x="7" y="10" width="445" height="64" fill="black" fill-opacity="0.3"/>
<path d="M8.25 7C8.25 6.30964 7.69036 5.75 7 5.75C6.30964 5.75 5.75 6.30964 5.75 7H8.25ZM0.333333 77C0.333333 80.6819 3.3181 83.6667 7 83.6667C10.6819 83.6667 13.6667 80.6819 13.6667 77C13.6667 73.3181 10.6819 70.3333 7 70.3333C3.3181 70.3333 0.333333 73.3181 0.333333 77ZM7 7H5.75V77H7H8.25V7H7Z" fill="black"/>
<path d="M453.25 77C453.25 77.6904 452.69 78.25 452 78.25C451.31 78.25 450.75 77.6904 450.75 77H453.25ZM445.333 7C445.333 3.3181 448.318 0.333333 452 0.333333C455.682 0.333333 458.667 3.3181 458.667 7C458.667 10.6819 455.682 13.6667 452 13.6667C448.318 13.6667 445.333 10.6819 445.333 7ZM452 77H450.75V7H452H453.25V77H452Z" fill="black"/>
</svg>
