<svg width="538" height="84" viewBox="0 0 538 84" fill="none" xmlns="http://www.w3.org/2000/svg">
<path d="M29.5436 52V25.4H34.4076V47.63H48.5056V52H29.5436ZM53.442 52V25.4H72.1V29.504H58.306V36.762H71.112V40.638H58.306V47.896H72.1V52H53.442ZM85.2549 52V29.77H76.3249V25.4H99.0869V29.77H90.1189V52H85.2549ZM104.145 36.914L103.993 25.4H108.287L108.097 36.914H104.145ZM121.635 52.532C115.973 52.532 111.223 50.328 111.223 45.692C111.223 43.45 112.097 41.778 113.921 40.068L117.417 42.918C116.657 43.754 116.239 44.704 116.239 45.54C116.239 46.984 117.797 48.162 121.673 48.162C127.411 48.162 129.653 46.528 129.653 44.21C129.653 42.538 127.373 41.588 123.193 40.41C119.393 39.346 113.921 37.826 113.921 32.392C113.921 27.832 118.139 24.868 123.421 24.868C128.399 24.868 131.895 27.224 131.895 31.176C131.895 32.468 131.401 33.912 130.603 34.976L126.271 33.076C126.689 32.468 126.879 31.936 126.879 31.252C126.879 29.998 125.587 29.238 123.079 29.238C120.229 29.238 118.937 30.34 118.937 32.392C118.937 34.216 120.837 35.052 124.599 36.04C129.387 37.294 134.669 39.384 134.669 44.248C134.669 49.34 129.349 52.532 121.635 52.532ZM155.309 52L149.723 25.4H154.587L157.323 38.928L158.843 47.478H158.919L169.331 24.906H169.483L179.895 47.478H179.971L181.529 38.928L184.303 25.4H189.091L183.505 52H177.501L169.369 34.824H169.293L161.313 52H155.309ZM206.668 52.532C198.574 52.532 192.532 47.06 192.532 38.7C192.532 30.378 198.574 24.868 206.668 24.868C214.762 24.868 220.804 30.378 220.804 38.7C220.804 47.06 214.762 52.532 206.668 52.532ZM206.668 48.162C212.064 48.162 215.75 44.78 215.75 38.7C215.75 32.62 212.064 29.238 206.668 29.238C201.272 29.238 197.586 32.62 197.586 38.7C197.586 44.78 201.272 48.162 206.668 48.162ZM225.947 52L225.871 43.944C225.871 36.306 226.327 31.746 227.429 25.4H232.103L231.457 29.884C233.623 26.768 236.511 24.868 240.121 24.868C244.339 24.868 246.619 27.11 246.619 31.062C246.619 35.508 243.199 38.548 239.019 40.144C244.149 41.398 246.809 44.742 247.645 52H242.781C241.717 45.388 238.867 42.842 233.661 42.386V38.51C237.613 38.206 241.755 34.862 241.755 31.442C241.755 29.884 240.881 29.238 239.399 29.238C234.687 29.238 230.849 33.418 230.545 42.158V44.438L230.621 52H225.947ZM252.2 52V25.4H257.064V36.99H261.282C267.324 36.99 269.338 32.05 269.87 25.4H274.848C274.05 32.544 272.15 37.446 265.804 38.548V38.624L267.4 38.814C271.01 39.384 272.91 40.866 274.202 44.4L277.014 52H271.466L269.528 45.882C268.388 42.31 265.88 40.98 261.32 40.98H257.064V52H252.2ZM300.007 52V29.77H291.077V25.4H313.839V29.77H304.871V52H300.007ZM330.512 52.532C321.924 52.532 316.034 46.946 316.034 39.004C316.034 37.142 316.338 35.356 316.87 33.266L321.658 32.696C321.126 34.406 320.936 36.534 320.936 38.434C320.936 44.438 324.736 48.162 330.512 48.162C336.592 48.162 339.974 44.59 339.974 38.396C339.974 32.468 337.086 29.238 332.108 29.238C329.448 29.238 327.51 30.834 327.51 33.684C327.51 35.356 328.08 36.876 329.372 38.548L325.116 40.068C323.634 38.168 322.836 36.078 322.836 33.798C322.836 28.402 326.788 24.868 332.222 24.868C339.974 24.868 344.99 30.15 344.99 38.358C344.99 46.642 339.1 52.532 330.512 52.532ZM360.526 52.532C353.724 52.532 349.468 47.44 349.468 39.346C349.468 30.112 354.978 24.868 364.668 24.868C367.366 24.868 370.102 25.248 374.016 26.312V30.872C369.798 29.618 367.138 29.238 364.63 29.238C357.79 29.238 354.522 32.506 354.522 39.194C354.522 45.084 357.03 48.162 361.704 48.162C366.644 48.162 369.608 44.666 369.95 38.358H374.7V52H370.824L370.444 43.336H370.368C369.646 49.036 365.96 52.532 360.526 52.532ZM381.192 52V25.4H399.85V29.504H386.056V36.762H398.862V40.638H386.056V47.896H399.85V52H381.192ZM413.005 52V29.77H404.075V25.4H426.837V29.77H417.869V52H413.005ZM431.262 52.532C427.272 52.532 424.84 50.176 424.84 46.338C424.84 41.246 429.172 37.864 435.708 36.306C435.556 33.076 434.986 29.352 433.884 25.4H438.786C439.736 29.01 440.344 32.392 440.534 35.546C441.864 35.432 443.232 35.356 444.638 35.356C446.158 35.356 447.602 35.432 449.046 35.584C449.122 31.594 449.502 28.288 450.072 25.4H454.974C454.214 29.922 453.91 32.506 453.872 36.306C455.24 36.61 456.684 36.952 458.204 37.37L457.444 41.74L453.948 40.828C454.138 44.324 454.632 47.706 455.582 52H450.68C449.692 47.212 449.198 43.64 449.046 39.954C447.64 39.802 446.196 39.726 444.638 39.726C443.156 39.726 441.788 39.802 440.534 39.916C439.964 47.782 436.62 52.532 431.262 52.532ZM429.704 46.148C429.704 47.44 430.312 48.162 431.528 48.162C433.694 48.162 435.176 45.236 435.632 40.79C431.756 41.892 429.704 43.83 429.704 46.148ZM463.352 52V25.4H482.01V29.504H468.216V36.762H481.022V40.638H468.216V47.896H482.01V52H463.352ZM487.993 52V25.4H498.367C506.461 25.4 509.881 28.25 509.881 33.57C509.881 37.788 505.929 40.296 502.281 40.6V40.676C505.663 41.018 506.993 42.576 508.095 45.046L511.211 52H505.701L503.383 46.224C502.357 43.64 500.609 42.462 497.493 42.462H492.857V52H487.993ZM497.569 38.776C502.775 38.776 504.941 37.408 504.941 34.026C504.941 30.796 503.079 29.504 497.873 29.504H492.857V38.776H497.569Z" fill="white"/>
<rect x="7" y="10" width="524" height="64" fill="#BDE128" fill-opacity="0.3"/>
<path d="M8.25 7C8.25 6.30964 7.69036 5.75 7 5.75C6.30964 5.75 5.75 6.30964 5.75 7H8.25ZM0.333333 77C0.333333 80.6819 3.3181 83.6667 7 83.6667C10.6819 83.6667 13.6667 80.6819 13.6667 77C13.6667 73.3181 10.6819 70.3333 7 70.3333C3.3181 70.3333 0.333333 73.3181 0.333333 77ZM5.75 7V77H8.25V7H5.75Z" fill="#BDE128"/>
<path d="M532.25 77C532.25 77.6904 531.69 78.25 531 78.25C530.31 78.25 529.75 77.6904 529.75 77H532.25ZM524.333 7C524.333 3.3181 527.318 0.333336 531 0.333336C534.682 0.333336 537.667 3.3181 537.667 7C537.667 10.6819 534.682 13.6667 531 13.6667C527.318 13.6667 524.333 10.6819 524.333 7ZM529.75 77V7H532.25V77H529.75Z" fill="#BDE128"/>
</svg>
