<svg width="358" height="84" viewBox="0 0 358 84" fill="none" xmlns="http://www.w3.org/2000/svg">
<rect x="7" y="10" width="344" height="64" fill="white" fill-opacity="0.3"/>
<path d="M8.25 7C8.25 6.30964 7.69036 5.75 7 5.75C6.30964 5.75 5.75 6.30964 5.75 7H8.25ZM0.333333 77C0.333333 80.6819 3.3181 83.6667 7 83.6667C10.6819 83.6667 13.6667 80.6819 13.6667 77C13.6667 73.3181 10.6819 70.3333 7 70.3333C3.3181 70.3333 0.333333 73.3181 0.333333 77ZM7 7H5.75V77H7H8.25V7H7Z" fill="white"/>
<path d="M352.25 77C352.25 77.6904 351.69 78.25 351 78.25C350.31 78.25 349.75 77.6904 349.75 77H352.25ZM344.333 7C344.333 3.3181 347.318 0.333333 351 0.333333C354.682 0.333333 357.667 3.3181 357.667 7C357.667 10.6819 354.682 13.6667 351 13.6667C347.318 13.6667 344.333 10.6819 344.333 7ZM351 77H349.75V7H351H352.25V77H351Z" fill="white"/>
</svg>
