<svg width="328" height="84" viewBox="0 0 328 84" fill="none" xmlns="http://www.w3.org/2000/svg">
<rect x="7" y="10" width="314" height="64" fill="black" fill-opacity="0.3"/>
<path d="M8.25 7C8.25 6.30964 7.69036 5.75 7 5.75C6.30964 5.75 5.75 6.30964 5.75 7H8.25ZM0.333333 77C0.333333 80.6819 3.3181 83.6667 7 83.6667C10.6819 83.6667 13.6667 80.6819 13.6667 77C13.6667 73.3181 10.6819 70.3333 7 70.3333C3.3181 70.3333 0.333333 73.3181 0.333333 77ZM7 7H5.75V77H7H8.25V7H7Z" fill="black"/>
<path d="M322.25 77C322.25 77.6904 321.69 78.25 321 78.25C320.31 78.25 319.75 77.6904 319.75 77H322.25ZM314.333 7C314.333 3.3181 317.318 0.333333 321 0.333333C324.682 0.333333 327.667 3.3181 327.667 7C327.667 10.6819 324.682 13.6667 321 13.6667C317.318 13.6667 314.333 10.6819 314.333 7ZM321 77H319.75V7H321H322.25V77H321Z" fill="black"/>
</svg>
